<svg width="168" height="45" viewBox="0 0 168 45" fill="none" xmlns="http://www.w3.org/2000/svg">
<path d="M56.778 30.7175V15.5061H61.6066V18.6935C61.859 17.5995 62.3745 16.7579 63.1529 16.1688C63.9524 15.5587 64.8361 15.2536 65.8039 15.2536C66.3089 15.2536 66.7296 15.2957 67.0663 15.3798V19.8612C66.4982 19.7981 66.0143 19.7665 65.6146 19.7665C62.9426 19.7665 61.6066 21.4602 61.6066 24.8475V30.7175H56.778ZM81.0556 28.9187C79.5407 30.4335 77.4999 31.1909 74.9331 31.1909C72.3663 31.1909 70.315 30.4335 68.7791 28.9187C67.2432 27.4038 66.4753 25.4682 66.4753 23.1118C66.4753 20.7554 67.2432 18.8303 68.7791 17.3365C70.315 15.8217 72.3663 15.0642 74.9331 15.0642C77.4999 15.0642 79.5407 15.8217 81.0556 17.3365C82.5914 18.8303 83.3594 20.7554 83.3594 23.1118C83.3594 25.4682 82.5914 27.4038 81.0556 28.9187ZM74.9331 27.0882C76.0482 27.0882 76.9318 26.72 77.5841 25.9837C78.2363 25.2473 78.5624 24.29 78.5624 23.1118C78.5624 21.9336 78.2363 20.9763 77.5841 20.2399C76.9318 19.5035 76.0482 19.1354 74.9331 19.1354C73.797 19.1354 72.9028 19.5035 72.2506 20.2399C71.6194 20.9763 71.3038 21.9336 71.3038 23.1118C71.3038 24.29 71.6194 25.2473 72.2506 25.9837C72.9028 26.72 73.797 27.0882 74.9331 27.0882ZM91.7087 31.1909C89.2261 31.1909 87.2484 30.4545 85.7756 28.9818C84.3029 27.488 83.5665 25.5313 83.5665 23.1118C83.5665 20.6923 84.3029 18.7461 85.7756 17.2734C87.2484 15.8006 89.2261 15.0642 91.7087 15.0642C93.9599 15.0642 95.7904 15.6218 97.2 16.7369C98.6096 17.852 99.4091 19.3668 99.5985 21.2814H94.7699C94.4123 19.8507 93.4024 19.1354 91.7403 19.1354C90.6883 19.1354 89.8678 19.4825 89.2787 20.1768C88.6896 20.8711 88.395 21.8494 88.395 23.1118C88.395 24.3742 88.6896 25.3525 89.2787 26.0468C89.8678 26.7411 90.6883 27.0882 91.7403 27.0882C93.4024 27.0882 94.4123 26.415 94.7699 25.0685H99.5985C99.4091 26.941 98.6096 28.4348 97.2 29.5498C95.7904 30.6439 93.9599 31.1909 91.7087 31.1909ZM116.029 30.7175H110.127L105.299 24.1217V30.7175H100.47V8.62619H105.299V21.8494L110.253 15.5061H115.934L109.875 22.7015L116.029 30.7175ZM130.055 22.3228C130.055 22.954 130.013 23.6588 129.928 24.4373H118.693C118.736 25.4261 119.072 26.1941 119.703 26.7411C120.335 27.2881 121.187 27.5616 122.26 27.5616C123.732 27.5616 124.679 27.0882 125.1 26.1415H129.834C129.602 27.6353 128.782 28.8555 127.372 29.8023C125.984 30.728 124.279 31.1909 122.26 31.1909C119.672 31.1909 117.631 30.4756 116.137 29.0449C114.643 27.6142 113.896 25.6365 113.896 23.1118C113.896 20.6291 114.643 18.6725 116.137 17.2418C117.631 15.7901 119.619 15.0642 122.102 15.0642C124.458 15.0642 126.373 15.7375 127.846 17.084C129.318 18.4305 130.055 20.1768 130.055 22.3228ZM118.693 21.4392H125.289C125.268 20.4293 124.984 19.6508 124.437 19.1038C123.89 18.5568 123.101 18.2833 122.07 18.2833C121.039 18.2833 120.219 18.5778 119.609 19.1669C119.02 19.735 118.714 20.4924 118.693 21.4392ZM138.846 26.962C139.519 26.962 140.077 26.9304 140.519 26.8673V30.7175C139.593 30.8858 138.52 30.97 137.3 30.97C136.753 30.97 136.269 30.9384 135.848 30.8753C135.427 30.8122 134.954 30.6755 134.428 30.4651C133.902 30.2336 133.471 29.9286 133.134 29.5498C132.797 29.1711 132.503 28.6241 132.25 27.9088C132.019 27.1934 131.903 26.3519 131.903 25.384V19.3247H129.505V15.5061H131.903V10.9931H136.732V15.5061H140.172V19.3247H136.732V24.3742C136.732 25.4051 136.91 26.0994 137.268 26.4571C137.626 26.7937 138.152 26.962 138.846 26.962ZM160.214 15.5061H165.011V37.0293H160.182V29.392H160.214V28.5715C159.793 29.3289 159.141 29.9496 158.257 30.4335C157.395 30.8964 156.437 31.1278 155.386 31.1278C153.176 31.1278 151.43 30.3809 150.147 28.8871C148.863 27.3933 148.222 25.4682 148.222 23.1118C148.222 20.7975 148.884 18.8829 150.21 17.368C151.535 15.8532 153.282 15.0958 155.449 15.0958C156.522 15.0958 157.479 15.3272 158.321 15.7901C159.162 16.253 159.793 16.8841 160.214 17.6836V15.5061ZM156.774 27.1198C157.931 27.1198 158.825 26.7411 159.457 25.9837C160.088 25.2263 160.403 24.269 160.403 23.1118C160.403 21.9757 160.088 21.0289 159.457 20.2715C158.825 19.5141 157.931 19.1354 156.774 19.1354C155.68 19.1354 154.796 19.5035 154.123 20.2399C153.471 20.9763 153.145 21.9336 153.145 23.1118C153.145 24.29 153.471 25.2578 154.123 26.0152C154.796 26.7516 155.68 27.1198 156.774 27.1198Z" fill="#0D114F"/>
<path d="M146.532 30.1179C145.943 30.728 145.207 31.0331 144.323 31.0331C143.44 31.0331 142.693 30.728 142.083 30.1179C141.494 29.5078 141.199 28.7819 141.199 27.9403C141.199 27.0777 141.494 26.3519 142.083 25.7628C142.693 25.1526 143.44 24.8475 144.323 24.8475C145.207 24.8475 145.943 25.1526 146.532 25.7628C147.143 26.3519 147.448 27.0777 147.448 27.9403C147.448 28.7819 147.143 29.5078 146.532 30.1179Z" fill="url(#paint0_linear)"/>
<rect x="0.374023" y="0.717529" width="43.832" height="43.832" rx="7.88976" fill="url(#paint1_linear)"/>
<g filter="url(#filter0_di)">
<path d="M33.632 33.1306H29.7227C29.5592 33.1306 29.4248 33.003 29.4103 32.8401C29.4057 32.7886 29.4008 32.7386 29.3954 32.6901C29.1714 30.6474 26.9723 28.8928 24.9323 29.1414C23.4432 29.3228 22.2091 30.4468 20.7185 30.6151C19.7133 30.7286 18.8361 30.6769 17.8336 30.4805C16.9549 30.3083 16.1067 29.9932 15.326 29.5547C13.4872 28.5219 12.5 27.4585 11.5847 25.8562C11.055 24.9289 10.677 23.9134 10.5395 22.8543C10.4257 21.9778 10.4329 21.2055 10.5284 20.3549C10.6744 19.0554 11.0908 17.7907 11.7704 16.6736C12.7244 15.1052 13.7556 14.1301 15.4356 13.2173C16.1472 12.8306 16.9127 12.548 17.7036 12.3743C19.7064 11.9345 21.003 12.0634 22.9499 12.6736C24.0331 13.0131 25.2096 13.7405 26.2102 14.6898C28.3983 16.7657 28.5652 20.0234 28.6205 23.039C28.6256 23.3186 28.37 23.53 28.0949 23.4803C26.7437 23.2359 25.7721 23.2163 24.4443 23.4274C24.0883 23.4839 23.7955 23.1155 23.8915 22.7681C23.9332 22.6173 23.9658 22.4693 23.9903 22.3234C24.3828 19.9886 22.7851 17.3235 20.4288 17.0939C19.092 16.9636 17.7683 17.5094 16.7878 18.6039C16.2026 19.1556 15.879 20.0209 15.7769 20.9437C15.5123 23.3348 17.4681 25.6471 19.8711 25.7614C20.3296 25.7832 20.7722 25.7166 21.2246 25.5632C22.65 25.0801 24.0394 24.3579 25.5402 24.471C30.0552 24.811 33.2263 26.8464 34.0607 32.6393C34.0981 32.899 33.8943 33.1306 33.632 33.1306Z" fill="#FAFAFA"/>
</g>
<defs>
<filter id="filter0_di" x="8.82308" y="12.1139" width="26.8744" height="24.2814" filterUnits="userSpaceOnUse" color-interpolation-filters="sRGB">
<feFlood flood-opacity="0" result="BackgroundImageFix"/>
<feColorMatrix in="SourceAlpha" type="matrix" values="0 0 0 0 0 0 0 0 0 0 0 0 0 0 0 0 0 0 127 0"/>
<feOffset dy="1.63237"/>
<feGaussianBlur stdDeviation="0.816183"/>
<feColorMatrix type="matrix" values="0 0 0 0 0 0 0 0 0 0 0 0 0 0 0 0 0 0 0.07 0"/>
<feBlend mode="normal" in2="BackgroundImageFix" result="effect1_dropShadow"/>
<feBlend mode="normal" in="SourceGraphic" in2="effect1_dropShadow" result="shape"/>
<feColorMatrix in="SourceAlpha" type="matrix" values="0 0 0 0 0 0 0 0 0 0 0 0 0 0 0 0 0 0 127 0" result="hardAlpha"/>
<feOffset dy="1.63237"/>
<feGaussianBlur stdDeviation="1.02023"/>
<feComposite in2="hardAlpha" operator="arithmetic" k2="-1" k3="1"/>
<feColorMatrix type="matrix" values="0 0 0 0 0.219608 0 0 0 0 0.533333 0 0 0 0 1 0 0 0 0.13 0"/>
<feBlend mode="normal" in2="shape" result="effect2_innerShadow"/>
</filter>
<linearGradient id="paint0_linear" x1="189.543" y1="-58.3116" x2="177.944" y2="54.8512" gradientUnits="userSpaceOnUse">
<stop stop-color="#5498FF"/>
<stop offset="0.515625" stop-color="#428EFF"/>
<stop offset="1" stop-color="#297FFF"/>
</linearGradient>
<linearGradient id="paint1_linear" x1="52.837" y1="-65.5902" x2="19.9869" y2="49.2557" gradientUnits="userSpaceOnUse">
<stop stop-color="#5498FF"/>
<stop offset="0.515625" stop-color="#428EFF"/>
<stop offset="1" stop-color="#297FFF"/>
</linearGradient>
</defs>
</svg>
